# AST/ASF file generated using VICON BodyLanguage
# -----------------------------------------------
:version 1.10
:name VICON
:units
  mass 1.0
  length 0.45
  angle deg
:documentation
   .ast/.asf automatically generated from VICON data using
   VICON BodyBuilder and BodyLanguage model FoxedUp or BRILLIANT.MOD
:root
   order TX TY TZ RX RY RZ
   axis XYZ
   position 0 0 0  
   orientation 0 0 0 
:bonedata
  begin
     id 1 
     name lhipjoint
     direction 0.610259 -0.730986 0.305356 
     length 2.50941 
     axis 0 0 0  XYZ
  end
  begin
     id 2 
     name lfemur
     direction 0.34202 -0.939693 0  
     length 7.48822  
     axis 0 0 20  XYZ
    dof rx ry rz
    limits (-160.0 20.0)
           (-70.0 70.0)
           (-60.0 70.0)
  end
  begin
     id 3 
     name ltibia
     direction 0.34202 -0.939693 0   
     length 7.60141   
     axis 0 0 20   XYZ
    dof rx
    limits (-10.0 170.0)
  end
  begin
     id 4 
     name lfoot
     direction 0.0673488 -0.185039 0.980421   
     length 2.04049   
     axis -90 7.62852e-016 20   XYZ
    dof rx rz
    limits (-45.0 90.0)
           (-70.0 20.0)
  end
  begin
     id 5 
     name ltoes
     direction 1.5356e-011 -4.21729e-011 1   
     length 1.02897   
     axis -90 7.62852e-016 20   XYZ
    dof rx
    limits (-90.0 20.0)
  end
  begin
     id 6 
     name rhipjoint
     direction -0.57612 -0.754205 0.315056   
     length 2.43216  
     axis 0 0 0  XYZ 
  end
  begin
     id 7 
     name rfemur
     direction -0.34202 -0.939693 0   
     length 7.42799   
     axis 0 0 -20   XYZ
    dof rx ry rz
    limits (-160.0 20.0)
           (-70.0 70.0)
           (-70.0 60.0)
  end
  begin
     id 8 
     name rtibia
     direction -0.34202 -0.939693 0   
     length 7.69484   
     axis 0 0 -20   XYZ
    dof rx
    limits (-10.0 170.0)
 end
 begin
     id 9 
     name rfoot
     direction -0.111837 -0.30727 0.945028   
     length 2.15769  
     axis -90 -7.62852e-016 -20   XYZ
    dof rx rz
    limits (-45.0 90.0)
           (-20.0 70.0)
  end
  begin
     id 10 
     name rtoes
     direction -1.53539e-011 -4.21878e-011 1   
     length 1.07391   
     axis -90 -7.62852e-016 -20   XYZ
    dof rx
    limits (-90.0 20.0)
  end
  begin
     id 11 
     name lowerback
     direction 0.00552624 0.990109 -0.140195   
     length 2.12403   
     axis 0 0 0   XYZ
    dof rx ry rz
    limits (-20.0 45.0)
           (-30.0 30.0)
           (-30.0 30.0)
  end
  begin
     id 12 
     name upperback
     direction 0.00361898 0.999976 -0.00584723   
     length 2.13232   
     axis 0 0 0   XYZ
    dof rx ry rz
    limits (-20.0 45.0)
           (-30.0 30.0)
           (-30.0 30.0)
  end
  begin
     id 13 
     name thorax
     direction -0.000331275 0.998253 0.0590847   
     length 2.17688   
     axis 0 0 0   XYZ
    dof rx ry rz
    limits (-20.0 45.0)
           (-30.0 30.0)
           (-30.0 30.0)
  end
  begin
     id 14 
     name lowerneck
     direction -0.0561561 0.979832 0.19177   
     length 1.64159   
     axis 0 0 0   XYZ
    dof rx ry rz
    limits (-20.0 45.0)
           (-30.0 30.0)
           (-30.0 30.0)
  end
  begin
     id 15 
     name upperneck
     direction 0.0827153 0.979385 -0.184293   
     length 1.68939   
     axis 0 0 0   XYZ
    dof rx ry rz
    limits (-20.0 45.0)
           (-30.0 30.0)
           (-30.0 30.0)
  end
  begin
     id 16
     name head
     direction 0.0278583 0.995936 -0.0856488  
     length 1.70207  
     axis 0 0 0   XYZ
    dof rx ry rz
    limits (-20.0 45.0)
           (-30.0 30.0)
           (-30.0 30.0)
  end
  begin
     id 17 
     name lclavicle
     direction 0.950993 0.301131 -0.0702275  
     length 3.41652  
     axis 0 0 0   XYZ
    dof ry rz
    limits (-20.0 10.0)
           (0.0 20.0)
  end
  begin
     id 18 
     name lhumerus
     direction 1 -4.48981e-011 -3.9662e-029   
     length 5.32955   
     axis 180 -30 -90   XYZ
    dof rx ry rz
    limits (-60.0 90.0)
           (-90.0 90.0)
           (-90.0 90.0)
  end
  begin
     id 19
     name lradius
     direction 1 -4.48925e-011 -9.0549e-027   
     length 3.69232   
     axis 180 -30 -90   XYZ
    dof rx
    limits (-10.0 170.0)
  end
  begin
     id 20
     name lwrist
     direction 1 -4.49007e-011 -1.49005e-026   
     length 1.84616   
     axis 9.0955e-015 90 90   XYZ
    dof ry
    limits (-180.0 0.0)
 end
  begin
     id 21 
     name lhand
     direction 1 -4.49016e-011 -2.98023e-026   
     length 0.536598   
     axis 1.90115e-014 90 90   XYZ
    dof rx rz
    limits (-90.0 90.0)
           (-45.0 45.0)
  end
  begin
     id 22 
     name lfingers
     direction 1 -4.48924e-011 -5.9578e-026   
     length 0.432619   
     axis 3.80223e-014 90 90   XYZ
    dof rx
    limits (0.0 90.0)
  end
  begin
     id 23
     name lthumb
     direction 0.707107 -6.34947e-011 0.707107   
     length 0.621157   
     axis -90 45 -3.84942e-014   XYZ
    dof rx rz
    limits (-45.0 45.0)
           (-45.0 45.0)
  end
  begin
     id 24 
     name rclavicle
     direction -0.955495 0.276497 -0.102848   
     length 3.36357  
     axis 0 0 0   XYZ 
    dof ry rz
    limits (-10.0 20.0)
           (-20.0 0.0)
  end
  begin
     id 25 
     name rhumerus
     direction -1 -4.48961e-011 3.30983e-027  
     length 5.23431   
     axis 180 30 90   XYZ
    dof rx ry rz
    limits (-90.0 60.0)
           (-90.0 90.0)
           (-90.0 90.0)
  end
  begin
     id 26 
     name rradius
     direction -1 -4.48965e-011 -6.63263e-027   
     length 3.55301   
     axis 180 30 90   XYZ
    dof rx
    limits (-10.0 170.0)
  end
  begin
     id 27 
     name rwrist
     direction -1 -4.48942e-011 -1.48958e-026   
     length 1.77651   
     axis 9.0955e-015 -90 -90   XYZ
    dof ry
    limits (-180.0 0.0)
  end
  begin
     id 28
     name rhand
     direction -1 -4.48977e-011 -2.97966e-026   
     length 0.772522   
     axis 1.90115e-014 -90 -90   XYZ
    dof rx rz
    limits (-90.0 90.0)
           (-45.0 45.0)
  end
  begin
     id 29
     name rfingers
     direction -1 -4.49135e-011 -5.96389e-026   
     length 0.622827   
     axis 3.80223e-014 -90 -90   XYZ
    dof rx
    limits (0.0 90.0)
  end
  begin
     id 30
     name rthumb
     direction -0.707107 -6.34969e-011 0.707107   
     length 0.894259   
     axis -90 -45 3.84942e-014   XYZ
    dof rx rz
    limits (-45.0 45.0)
           (-45.0 45.0)
  end
:hierarchy
  begin
    root lhipjoint rhipjoint lowerback
    lhipjoint lfemur
    lfemur ltibia
    ltibia lfoot
    lfoot ltoes
    rhipjoint rfemur
    rfemur rtibia
    rtibia rfoot
    rfoot rtoes
    lowerback upperback
    upperback thorax
    thorax lowerneck lclavicle rclavicle
    lowerneck upperneck
    upperneck head
    lclavicle lhumerus
    lhumerus lradius
    lradius lwrist
    lwrist lhand lthumb
    lhand lfingers
    rclavicle rhumerus
    rhumerus rradius
    rradius rwrist
    rwrist rhand rthumb
    rhand rfingers
  end

#!OML:ASF F:\VICON\USERDATA\INSTALL\rory3\rory3.ASF
:FULLY-SPECIFIED
:DEGREES
49
root 11.7118 17.855 -12.3459 0.16191 -2.92905 -2.458
lowerback 10.9306 2.33663 3.48159
upperback 0.391283 3.59325 0.940496
thorax -5.56525 1.68741 -1.52573
lowerneck -19.1671 -8.30194 -13.5908
upperneck 26.8783 -11.1219 11.6251
head 13.8154 -4.80773 4.88727
rclavicle 3.16813e-014 -1.61016e-014
rhumerus -27.2099 -7.78502 -83.8834
rradius 34.8674
rwrist 3.95068
rhand -14.4809 6.00066
rfingers 7.12502
rthumb 11.6654 -23.6546
lclavicle 3.16813e-014 -1.61016e-014
lhumerus -40.3568 10.8288 79.1551
lradius 28.0322
lwrist -9.03271
lhand -18.752 27.4052
lfingers 7.12502
lthumb 7.54449 57.2506
rfemur 4.81738 1.90922 30.0488
rtibia 19.006
rfoot -15.7645 -0.991922
rtoes 8.17606
lfemur -22.693 -4.61813 -13.0375
ltibia 19.9657
lfoot -3.81913 3.51318
ltoes -21.4075
50
root 11.7099 17.8452 -12.2081 0.199338 -3.24979 -2.4241
lowerback 10.8294 2.41264 3.5044
upperback 0.440851 3.68886 0.909435
thorax -5.44814 1.73668 -1.57825
lowerneck -19.3207 -8.2856 -13.5839
upperneck 26.8663 -11.0942 11.6735
head 13.8417 -4.78349 4.9083
rclavicle 1.36416e-014 -5.56597e-015
rhumerus -26.9737 -7.34052 -84.0946
rradius 35.1511
rwrist 3.42682
rhand -14.9597 5.58431
rfingers 7.12502
rthumb 11.2036 -24.0965
lclavicle 1.36416e-014 -5.56597e-015
lhumerus -40.4233 10.8928 79.1952
lradius 27.9082
lwrist -8.53587
lhand -19.1289 27.355
lfingers 7.12502
lthumb 7.18072 57.2132
rfemur 5.38558 1.90482 29.9534
rtibia 18.8405
rfoot -15.8209 -0.761387
rtoes 8.12342
lfemur -22.3552 -5.10701 -12.8904
ltibia 17.5131
lfoot -3.55692 3.81284
ltoes -21.7688
51
root 11.7063 17.8321 -12.073 0.208423 -3.48954 -2.53491
lowerback 10.8652 2.41504 3.65265
upperback 0.46293 3.71236 0.933353
thorax -5.43614 1.74514 -1.64058
lowerneck -19.5632 -8.24158 -13.5798
upperneck 26.9358 -11.0047 11.6697
head 13.9077 -4.73601 4.92236
rclavicle -4.12975e-014 1.19271e-015
rhumerus -26.7195 -7.19028 -84.2194
rradius 35.2527
rwrist 3.38215
rhand -14.9659 5.83824
rfingers 7.12502
rthumb 11.1977 -23.8429
lclavicle -4.12975e-014 1.19271e-015
lhumerus -40.465 10.9286 79.2607
lradius 27.8044
lwrist -7.92841
lhand -19.4962 27.5651
lfingers 7.12502
lthumb 6.82617 57.4351
rfemur 5.99346 1.91328 30.0563
rtibia 18.6548
rfoot -15.9488 -0.6152
rtoes 8.70848
lfemur -22.0608 -5.51245 -12.6033
ltibia 15.2427
lfoot -3.25133 3.82572
ltoes -22.4785
52
root 11.701 17.8163 -11.9394 0.313414 -3.64933 -2.51942
lowerback 10.7906 2.4346 3.63541
upperback 0.451924 3.73325 0.935889
thorax -5.40612 1.75654 -1.62778
lowerneck -19.7019 -8.18402 -13.3368
upperneck 26.985 -10.9294 11.4841
head 13.9138 -4.69607 4.8184
rclavicle -3.95333e-014 8.54774e-015
rhumerus -26.4813 -7.15698 -84.2549
rradius 35.2978
rwrist 3.50578
rhand -14.7127 6.35588
rfingers 7.12502
rthumb 11.4419 -23.3119
lclavicle -3.95333e-014 8.54774e-015
lhumerus -40.5052 10.9156 79.3241
lradius 27.7292
lwrist -7.84274
lhand -19.6142 27.4206
lfingers 7.12502
lthumb 6.71224 57.2942
rfemur 6.52287 1.87021 30.0219
rtibia 18.4216
rfoot -15.9718 -0.493025
rtoes 8.21159
lfemur -21.9976 -5.59561 -12.5645
ltibia 13.3129
lfoot -2.98047 3.59357
ltoes -23.435
53
root 11.6977 17.8064 -11.8005 0.442733 -3.91331 -2.45301
lowerback 10.63 2.50365 3.57492
upperback 0.42592 3.80884 0.895301
thorax -5.34073 1.79623 -1.63948
lowerneck -19.7841 -8.07099 -12.7606
upperneck 27.015 -10.837 11.1258
head 13.8605 -4.63785 4.59042
rclavicle 3.30976e-014 -1.39149e-014
rhumerus -26.2267 -7.15565 -84.336
rradius 35.3066
rwrist 3.70232
rhand -14.6938 6.20126
rfingers 7.12502
rthumb 11.4601 -23.4655
lclavicle 3.30976e-014 -1.39149e-014
lhumerus -40.5606 10.883 79.3556
lradius 27.5553
lwrist -7.73815
lhand -19.6812 27.2812
lfingers 7.12502
lthumb 6.64761 57.1569
rfemur 7.01247 1.78165 29.8655
rtibia 18.1879
rfoot -15.7979 -0.335902
rtoes 7.65096
lfemur -21.9549 -5.54423 -12.6232
ltibia 11.7474
lfoot -2.95598 3.55194
ltoes -23.6058
54
root 11.6954 17.7954 -11.6595 0.459068 -4.29862 -2.53844
lowerback 10.6524 2.58192 3.71006
upperback 0.358502 3.93119 0.873618
thorax -5.40762 1.85039 -1.75823
lowerneck -19.7031 -8.05612 -12.7368
upperneck 27.103 -10.852 11.1483
head 13.8832 -4.64196 4.59762
rclavicle 1.49585e-014 1.23246e-014
rhumerus -26.1354 -7.07512 -84.4811
rradius 35.4223
rwrist 3.7541
rhand -14.5461 5.48034
rfingers 7.12502
rthumb 11.6025 -24.1785
lclavicle 1.49585e-014 1.23246e-014
lhumerus -40.7749 10.8174 79.3125
lradius 27.4831
lwrist -7.76053
lhand -19.6536 27.2294
lfingers 7.12502
lthumb 6.6742 57.1042
rfemur 7.56577 1.72694 29.8688
rtibia 18.0341
rfoot -15.7371 -0.14963
rtoes 6.42398
lfemur -21.7287 -5.25489 -12.5749
ltibia 10.4153
lfoot -3.33749 3.53813
ltoes -22.1724
55
root 11.6922 17.7808 -11.5193 0.489495 -4.6398 -2.57274
lowerback 10.6512 2.65801 3.74637
upperback 0.330162 4.03816 0.884605
thorax -5.42948 1.90132 -1.78315
lowerneck -19.7164 -8.18899 -13.2475
upperneck 27.1866 -10.9848 11.464
head 14.0044 -4.7129 4.79113
rclavicle 1.09083e-014 -1.19271e-015
rhumerus -26.0265 -6.92321 -84.5533
rradius 35.5606
rwrist 3.62239
rhand -14.4562 5.43204
rfingers 7.12502
rthumb 11.6892 -24.2219
lclavicle 1.09083e-014 -1.19271e-015
lhumerus -40.9057 10.9374 79.2626
lradius 27.4848
lwrist -8.18903
lhand -19.4896 27.0747
lfingers 7.12502
lthumb 6.83259 56.9444
rfemur 8.09003 1.84518 29.8771
rtibia 17.9204
rfoot -15.7425 -0.115753
rtoes 5.65834
lfemur -21.5288 -4.74423 -12.6752
ltibia 9.3767
lfoot -3.98173 3.1367
ltoes -19.9334
56
root 11.6879 17.7671 -11.3811 0.597988 -4.78605 -2.54392
lowerback 10.5029 2.66124 3.68532
upperback 0.36642 4.02759 0.898241
thorax -5.31387 1.90124 -1.72374
lowerneck -19.9002 -8.26439 -13.4865
upperneck 27.2716 -11.0365 11.5775
head 14.1154 -4.73945 4.86821
rclavicle -1.04362e-015 -8.54774e-015
rhumerus -25.7805 -6.99025 -84.5823
rradius 35.6485
rwrist 3.6648
rhand -14.3018 5.61295
rfingers 7.12502
rthumb 11.8381 -24.0324
lclavicle -1.04362e-015 -8.54774e-015
lhumerus -40.7991 11.1043 79.2913
lradius 27.347
lwrist -8.42503
lhand -19.6089 26.8169
lfingers 7.12502
lthumb 6.71741 56.6903
rfemur 8.48074 1.96268 29.8599
rtibia 17.8381
rfoot -15.5322 -0.176085
rtoes 5.06257
lfemur -21.5428 -4.42207 -12.8409
ltibia 8.719
lfoot -4.16167 2.49299
ltoes -22.0807
57
root 11.6842 17.7561 -11.2437 0.693485 -4.80253 -2.52696
lowerback 10.378 2.614 3.6792
upperback 0.365959 3.95794 0.891086
thorax -5.24788 1.86878 -1.71096
lowerneck -19.9241 -8.24264 -13.4319
upperneck 27.3312 -11.0096 11.5245
head 14.1337 -4.72802 4.84417
rclavicle -2.19906e-014 -2.98177e-014
rhumerus -25.5962 -7.11323 -84.6163
rradius 35.6378
rwrist 3.92191
rhand -14.2874 5.78571
rfingers 7.12502
rthumb 11.852 -23.8589
lclavicle -2.19906e-014 -2.98177e-014
lhumerus -40.75 11.2359 79.2064
lradius 27.1926
lwrist -8.82501
lhand -19.3994 26.5998
lfingers 7.12502
lthumb 6.91963 56.4667
rfemur 8.81325 2.02491 29.8653
rtibia 17.8681
rfoot -15.3558 -0.332587
rtoes 4.20012
lfemur -21.5365 -4.23738 -13.0104
ltibia 8.28903
lfoot -3.82848 1.58767
ltoes -26.2519
